<svg fill="none" height="22" viewBox="0 0 22 22" width="22" xmlns="http://www.w3.org/2000/svg"><path d="m11.6512 12.2834c-.0852.0859-.1866.1541-.2983.2006-.1117.0466-.2315.0705-.3525.0705s-.2408-.0239-.3525-.0705c-.1117-.0465-.2131-.1147-.2983-.2006l-4.19836-4.20752c-.08522-.08592-.1866-.15411-.29831-.20065-.1117-.04654-.23152-.0705-.35253-.0705s-.24082.02396-.35253.0705c-.1117.04654-.21309.11473-.2983.20065-.17073.17175-.26656.40408-.26656.64625s.09583.4745.26656.64625l4.2075 4.20752c.51563.515 1.21463.8042 1.94333.8042.7288 0 1.4277-.2892 1.9433-.8042l4.2075-4.20752c.1694-.17074.2649-.40119.2659-.64167.0007-.12064-.0224-.24023-.0681-.35191-.0456-.11169-.1128-.21327-.1978-.29892-.0852-.08592-.1865-.15411-.2983-.20065-.1117-.04654-.2315-.0705-.3525-.0705s-.2408.02396-.3525.0705-.2131.11473-.2983.20065z" fill="#fd9222"/></svg>