<svg fill="none" height="32" viewBox="0 0 32 32" width="32" xmlns="http://www.w3.org/2000/svg"><path d="m13.822 2.41301 7.527 7.536.08-.08c.1577-.15432.3688-.24181.5894-.24424.2206-.00242.4336.08042.5946.23124l.006.006.867.86699c.305.305.315.77.083 1.094l-.004.007-.143.192 6.16 6.16c.55.55.55 1.43 0 1.98l-9.43 9.43c-.55.55-1.43.55-1.98 0l-4.447-4.447c-.0738.0931-.1666.1695-.2721.2242s-.2213.0864-.34.0931c-.1186.0067-.2373-.0118-.3483-.0542-.111-.0425-.2117-.1079-.2956-.1921l-2.59999-2.6c-.15432-.1576-.24181-.3688-.24424-.5894-.00242-.2206.08042-.4336.23124-.5946l.006-.007.077-.076-7.527-7.527c-.55-.55-.55-1.43 0-1.98l9.42999-9.42999c.55-.55 1.43-.55 1.98 0zm6.582 8.47999-1.756-1.75499c-.0552-.05691-.1212-.10216-.1942-.13306s-.1515-.04682-.2308-.04682-.1577.01592-.2307.04682-.1391.07615-.1943.13306l-3.58 3.57999c-.0567.0563-.1017.1233-.1324.1971-.0308.0738-.0466.153-.0466.2329s.0158.1591.0466.2329c.0307.0738.0757.1408.1324.1971l1.749 1.749.61-.61-1.565-1.565 3.21-3.21999 1.569 1.57399zm-5.076 5.072-1.754-1.754c-.0552-.0569-.1212-.1022-.1942-.1331s-.1515-.0468-.2308-.0468-.1577.0159-.2307.0468-.1391.0762-.1943.1331l-3.57999 3.58-.005.005-.005.005c-.24.23-.24.61 0 .85l1.75199 1.752.616-.616-1.56999-1.564 3.21999-3.21 1.564 1.563zm-6.50599-7.77199 3.57999 3.57999c.24.24.62.24.85-.01l3.58-3.57999c.0569-.05417.1022-.11933.1331-.19153.031-.07219.0469-.14992.0469-.22847h.01c0-.15-.06-.31-.18-.43l-3.58-3.58c-.0562-.05684-.1232-.10196-.197-.13276-.0738-.03079-.153-.04665-.233-.04665s-.1591.01586-.233.04665c-.0738.0308-.1407.07592-.197.13276l-3.57999 3.59c-.24.23-.24.61 0 .85zm-5.07 5.06999 3.58 3.58c.24.24.62.24.85 0l3.57999-3.58c.0581-.0553.1041-.1221.1351-.1961s.0463-.1537.0449-.2339h.01c0-.16-.06-.31-.18-.43l-3.57999-3.57999c-.05518-.05691-.12124-.10216-.19425-.13306-.073-.0309-.15147-.04682-.23075-.04682-.07927 0-.15774.01592-.23075.04682-.073.0309-.13906.07615-.19425.13306l-3.59 3.58999c-.24.23-.24.61 0 .85zm6.93299 8.754 2.362 2.363 9.636-13.04-.655-.655z" fill="#000"/><path d="m13.822 2.41301 7.527 7.536.08-.08c.1577-.15432.3688-.24181.5894-.24424.2206-.00242.4336.08042.5946.23124l.006.006.867.86699c.305.305.315.77.083 1.094l-.004.007-.143.192 6.16 6.16c.55.55.55 1.43 0 1.98l-9.43 9.43c-.55.55-1.43.55-1.98 0l-4.447-4.447c-.0738.0931-.1666.1695-.2721.2242s-.2213.0864-.34.0931c-.1186.0067-.2373-.0118-.3483-.0542-.111-.0425-.2117-.1079-.2956-.1921l-2.59999-2.6c-.15432-.1576-.24181-.3688-.24424-.5894-.00242-.2206.08042-.4336.23124-.5946l.006-.007.077-.076-7.527-7.527c-.55-.55-.55-1.43 0-1.98l9.42999-9.42999c.55-.55 1.43-.55 1.98 0zm6.582 8.47999-1.756-1.75499c-.0552-.05691-.1212-.10216-.1942-.13306s-.1515-.04682-.2308-.04682-.1577.01592-.2307.04682-.1391.07615-.1943.13306l-3.58 3.57999c-.0567.0563-.1017.1233-.1324.1971-.0308.0738-.0466.153-.0466.2329s.0158.1591.0466.2329c.0307.0738.0757.1408.1324.1971l1.749 1.749.61-.61-1.565-1.565 3.21-3.21999 1.569 1.57399zm-5.076 5.072-1.754-1.754c-.0552-.0569-.1212-.1022-.1942-.1331s-.1515-.0468-.2308-.0468-.1577.0159-.2307.0468-.1391.0762-.1943.1331l-3.57999 3.58-.005.005-.005.005c-.24.23-.24.61 0 .85l1.75199 1.752.616-.616-1.56999-1.564 3.21999-3.21 1.564 1.563zm-6.50599-7.77199 3.57999 3.57999c.24.24.62.24.85-.01l3.58-3.57999c.0569-.05417.1022-.11933.1331-.19153.031-.07219.0469-.14992.0469-.22847h.01c0-.15-.06-.31-.18-.43l-3.58-3.58c-.0562-.05684-.1232-.10196-.197-.13276-.0738-.03079-.153-.04665-.233-.04665s-.1591.01586-.233.04665c-.0738.0308-.1407.07592-.197.13276l-3.57999 3.59c-.24.23-.24.61 0 .85zm-5.07 5.06999 3.58 3.58c.24.24.62.24.85 0l3.57999-3.58c.0581-.0553.1041-.1221.1351-.1961s.0463-.1537.0449-.2339h.01c0-.16-.06-.31-.18-.43l-3.57999-3.57999c-.05518-.05691-.12124-.10216-.19425-.13306-.073-.0309-.15147-.04682-.23075-.04682-.07927 0-.15774.01592-.23075.04682-.073.0309-.13906.07615-.19425.13306l-3.59 3.58999c-.24.23-.24.61 0 .85zm6.93299 8.754 2.362 2.363 9.636-13.04-.655-.655z" fill="#fd9222"/></svg>