<svg fill="none" height="32" viewBox="0 0 32 32" width="32" xmlns="http://www.w3.org/2000/svg"><g fill="#fd9222"><path d="m15.9998 2.66675c-7.3333 0-13.3333 6-13.3333 13.33335 0 7.3333 6 13.3333 13.3333 13.3333 7.3334 0 13.3334-6 13.3334-13.3333 0-7.33335-6-13.33335-13.3334-13.33335zm0 23.99995c-5.8666 0-10.66663-4.8-10.66663-10.6666 0-5.8667 4.80003-10.66669 10.66663-10.66669 5.8667 0 10.6667 4.79999 10.6667 10.66669 0 5.8666-4.8 10.6666-10.6667 10.6666z"/><path d="m17.7332 14.6667h-3.4666c-.6667 0-1.2-.5334-1.2-1.2 0-.6667.5333-1.2 1.2-1.2h4.9333c.8 0 1.3333-.5334 1.3333-1.3334s-.5333-1.33332-1.3333-1.33332h-1.8667v-1.2c0-.8-.5333-1.33333-1.3333-1.33333s-1.3333.53333-1.3333 1.33333v1.2h-.4c-2.1334 0-3.8667 1.73332-3.8667 3.86672 0 2.1333 1.7333 3.8666 3.8667 3.8666h3.3333c.6667 0 1.2.5333 1.2 1.2s-.5333 1.2-1.2 1.2h-4.9333c-.8 0-1.3334.5334-1.3334 1.3334s.5334 1.3333 1.3334 1.3333h2v1.2c0 .8.5333 1.3333 1.3333 1.3333s1.3333-.5333 1.3333-1.3333v-1.2h.4c2.1334 0 3.8667-1.7333 3.8667-3.8667 0-2.1333-1.7333-3.8666-3.8667-3.8666z"/></g></svg>