<svg fill="none" height="24" viewBox="0 0 24 24" width="24" xmlns="http://www.w3.org/2000/svg"><g stroke="#111" stroke-linecap="round" stroke-linejoin="round" stroke-width="2"><path d="m17 2h-10c-2.76142 0-5 2.23858-5 5v10c0 2.7614 2.23858 5 5 5h10c2.7614 0 5-2.2386 5-5v-10c0-2.76142-2.2386-5-5-5z"/><path d="m16.0002 11.3701c.1234.8322-.0187 1.6822-.4062 2.429s-1.0007 1.3524-1.7522 1.7306c-.7515.3783-1.6032.51-2.4338.3763-.8307-.1337-1.59804-.5259-2.19297-1.1208-.59492-.5949-.9871-1.3623-1.12077-2.1929-.13366-.8307-.002-1.6823.37626-2.4339.37826-.75149.98386-1.3646 1.73068-1.7521.7468-.3875 1.5967-.52965 2.429-.40624.8489.12588 1.6348.52146 2.2417 1.1283.6068.60685 1.0024 1.39274 1.1283 2.24174z"/><path d="m16.0002 11.3701c.1234.8322-.0187 1.6822-.4062 2.429s-1.0007 1.3524-1.7522 1.7306c-.7515.3783-1.6032.51-2.4338.3763-.8307-.1337-1.59804-.5259-2.19297-1.1208-.59492-.5949-.9871-1.3623-1.12077-2.1929-.13366-.8307-.002-1.6823.37626-2.4339.37826-.75149.98386-1.3646 1.73068-1.7521.7468-.3875 1.5967-.52965 2.429-.40624.8489.12588 1.6348.52146 2.2417 1.1283.6068.60685 1.0024 1.39274 1.1283 2.24174z"/><path d="m17.5 6.5h.01"/><path d="m17.5 6.5h.01"/></g></svg>