<svg fill="none" height="24" viewBox="0 0 214 24" width="214" xmlns="http://www.w3.org/2000/svg"><path d="m5.914 18.216c-.684 0-1.35-.066-1.998-.198-.636-.12-1.218-.288-1.746-.504-.516-.216-.954-.45-1.314-.702l1.188-2.25c.396.276.816.516 1.26.72.456.192.93.342 1.422.45.492.096.984.144 1.476.144.54 0 1.002-.06 1.386-.18.396-.12.696-.288.9-.504.216-.216.324-.48.324-.792 0-.288-.114-.522-.342-.702s-.528-.33-.9-.45c-.36-.132-.762-.258-1.206-.378s-.894-.258-1.35-.414c-.444-.168-.852-.372-1.224-.612-.36-.252-.654-.57-.882-.954s-.342-.864-.342-1.44c0-.864.234-1.614.702-2.25.48-.636 1.152-1.128 2.016-1.476.864-.36 1.878-.54 3.042-.54.852 0 1.656.096 2.412.288.756.18 1.404.444 1.944.792l-1.098 2.232c-.48-.324-1.014-.564-1.602-.72-.588-.168-1.194-.252-1.818-.252-.564 0-1.05.066-1.458.198-.396.132-.702.318-.918.558-.204.228-.306.492-.306.792s.108.546.324.738c.228.18.528.336.9.468.372.12.78.24 1.224.36s.888.258 1.332.414.852.354 1.224.594.672.546.9.918c.228.36.342.816.342 1.368 0 .864-.24 1.62-.72 2.268-.48.636-1.158 1.134-2.034 1.494-.864.348-1.884.522-3.06.522zm6.5465-.216 2.52-12.6h2.934l-2.52 12.6zm5.3663 0 2.52-12.6h2.376l3.582 8.928-1.26-.018 6.984-8.91h2.502l-2.502 12.6h-2.736l1.674-8.442h.558l-5.562 7.11h-1.296l-2.97-7.128.54.054-1.674 8.406zm16.6514 0 2.52-12.6h5.094c1.572 0 2.784.348 3.636 1.044.864.684 1.296 1.644 1.296 2.88 0 1.056-.246 1.98-.738 2.772-.492.78-1.2 1.38-2.124 1.8-.912.42-1.998.63-3.258.63h-4.086l1.548-1.332-.954 4.806zm3.816-4.464-1.026-1.386h3.762c.96 0 1.704-.216 2.232-.648.54-.444.81-1.086.81-1.926 0-.612-.204-1.062-.612-1.35-.408-.3-.984-.45-1.728-.45h-3.546l1.548-1.422zm8.6518 4.464 2.52-12.6h2.934l-2.052 10.224h6.318l-.486 2.376zm12.1545 0 1.026-5.184.324 1.836-3.708-9.252h2.916l2.826 7.074-1.764.018 5.706-7.092h3.006l-7.38 9.27.99-1.854-1.026 5.184zm20.0517.216c-.972 0-1.878-.156-2.718-.468-.828-.324-1.548-.78-2.16-1.368s-1.092-1.278-1.44-2.07c-.336-.792-.504-1.662-.504-2.61s.168-1.818.504-2.61c.348-.792.828-1.482 1.44-2.07.624-.588 1.35-1.038 2.178-1.35.828-.324 1.734-.486 2.718-.486 1.092 0 2.076.192 2.952.576.888.372 1.632.924 2.232 1.656l-1.872 1.728c-.432-.492-.912-.858-1.44-1.098-.528-.252-1.104-.378-1.728-.378-.588 0-1.128.096-1.62.288s-.918.468-1.278.828-.642.786-.846 1.278c-.192.492-.288 1.038-.288 1.638s.096 1.146.288 1.638c.204.492.486.918.846 1.278s.786.636 1.278.828 1.032.288 1.62.288c.624 0 1.2-.12 1.728-.36.528-.252 1.008-.63 1.44-1.134l1.872 1.728c-.6.732-1.344 1.29-2.232 1.674-.876.384-1.866.576-2.97.576zm15.2712-12.816h2.916v12.6h-2.916zm-5.724 12.6h-2.916v-12.6h2.916zm5.94-5.166h-6.156v-2.466h6.156zm11.2606 5.382c-.996 0-1.92-.162-2.772-.486-.84-.324-1.572-.78-2.196-1.368-.612-.588-1.0915-1.278-1.4395-2.07-.336-.792-.504-1.656-.504-2.592s.168-1.8.504-2.592c.348-.792.8335-1.482 1.4575-2.07s1.356-1.044 2.196-1.368 1.752-.486 2.736-.486c.996 0 1.908.162 2.736.486.84.324 1.566.78 2.178 1.368.624.588 1.11 1.278 1.458 2.07.348.78.522 1.644.522 2.592 0 .936-.174 1.806-.522 2.61-.348.792-.834 1.482-1.458 2.07-.612.576-1.338 1.026-2.178 1.35-.828.324-1.734.486-2.718.486zm-.018-2.484c.564 0 1.08-.096 1.548-.288.48-.192.9-.468 1.26-.828s.636-.786.828-1.278c.204-.492.306-1.038.306-1.638s-.102-1.146-.306-1.638c-.192-.492-.468-.918-.828-1.278-.348-.36-.762-.636-1.242-.828s-1.002-.288-1.566-.288-1.086.096-1.566.288c-.468.192-.882.468-1.242.828s-.642.786-.846 1.278c-.192.492-.288 1.038-.288 1.638 0 .588.096 1.134.288 1.638.204.492.48.918.828 1.278.36.36.78.636 1.26.828s1.002.288 1.566.288zm14.576 2.484c-.972 0-1.878-.156-2.718-.468-.828-.324-1.548-.78-2.16-1.368s-1.092-1.278-1.44-2.07c-.336-.792-.504-1.662-.504-2.61s.168-1.818.504-2.61c.348-.792.828-1.482 1.44-2.07.624-.588 1.35-1.038 2.178-1.35.828-.324 1.734-.486 2.718-.486 1.092 0 2.076.192 2.952.576.888.372 1.632.924 2.232 1.656l-1.872 1.728c-.432-.492-.912-.858-1.44-1.098-.528-.252-1.104-.378-1.728-.378-.588 0-1.128.096-1.62.288s-.918.468-1.278.828-.642.786-.846 1.278c-.192.492-.288 1.038-.288 1.638s.096 1.146.288 1.638c.204.492.486.918.846 1.278s.786.636 1.278.828 1.032.288 1.62.288c.624 0 1.2-.12 1.728-.36.528-.252 1.008-.63 1.44-1.134l1.872 1.728c-.6.732-1.344 1.29-2.232 1.674-.876.384-1.866.576-2.97.576zm12.487 0c-.996 0-1.92-.162-2.772-.486-.84-.324-1.572-.78-2.196-1.368-.612-.588-1.092-1.278-1.44-2.07-.336-.792-.504-1.656-.504-2.592s.168-1.8.504-2.592c.348-.792.834-1.482 1.458-2.07s1.356-1.044 2.196-1.368 1.752-.486 2.736-.486c.996 0 1.908.162 2.736.486.84.324 1.566.78 2.178 1.368.624.588 1.11 1.278 1.458 2.07.348.78.522 1.644.522 2.592 0 .936-.174 1.806-.522 2.61-.348.792-.834 1.482-1.458 2.07-.612.576-1.338 1.026-2.178 1.35-.828.324-1.734.486-2.718.486zm-.018-2.484c.564 0 1.08-.096 1.548-.288.48-.192.9-.468 1.26-.828s.636-.786.828-1.278c.204-.492.306-1.038.306-1.638s-.102-1.146-.306-1.638c-.192-.492-.468-.918-.828-1.278-.348-.36-.762-.636-1.242-.828s-1.002-.288-1.566-.288-1.086.096-1.566.288c-.468.192-.882.468-1.242.828s-.642.786-.846 1.278c-.192.492-.288 1.038-.288 1.638 0 .588.096 1.134.288 1.638.204.492.48.918.828 1.278.36.36.78.636 1.26.828s1.002.288 1.566.288zm8.546 2.268v-12.6h2.916v10.224h6.318v2.376zm8.738 0 5.616-12.6h2.88l5.634 12.6h-3.06l-4.608-11.124h1.152l-4.626 11.124zm2.808-2.7.774-2.214h6.48l.792 2.214zm14.066 2.7v-10.224h-4.032v-2.376h10.98v2.376h-4.032v10.224zm10.659-7.524h6.066v2.268h-6.066zm.216 5.184h6.858v2.34h-9.756v-12.6h9.522v2.34h-6.624z" fill="#111"/><path d="m192.958 15.0568 8.083-13.0682.48-.50557 6.176 4.11837.043 2.48525 1.507 2.45965-6.66 10.5575z" fill="#fcf1e0"/><path d="m206.226 17.9097-10.639-6.6481m2.934-4.81255 10.639 6.64805m-11.188 6.3011 8.802-14.43769m3.608 6.13139c-2.28-1.4246-3.175-2.53795-1.708-4.94423l-7.219-4.5112-8.802 14.43773 10.639 6.6481z" stroke="#fd9222" stroke-linecap="round" stroke-linejoin="round" stroke-width="2"/></svg>